<svg xmlns="http://www.w3.org/2000/svg" width="114" height="22" viewBox="0 0 114 22">
  <g id="Group_108" data-name="Group 108" transform="translate(-127 -185)">
    <path id="empty-star" d="M13,3l3.09,6.583L23,10.645l-5,5.121L19.18,23,13,19.583,6.82,23,8,15.766,3,10.645,9.91,9.583Z" transform="translate(125 183)" fill="#a300cf" stroke="#a300cf" stroke-linecap="round" stroke-linejoin="round" stroke-width="2"/>
    <path id="empty-star-2" data-name="empty-star" d="M13,3l3.09,6.583L23,10.645l-5,5.121L19.18,23,13,19.583,6.82,23,8,15.766,3,10.645,9.91,9.583Z" transform="translate(148 183)" fill="#a300cf" stroke="#a300cf" stroke-linecap="round" stroke-linejoin="round" stroke-width="2"/>
    <path id="empty-star-3" data-name="empty-star" d="M13,3l3.09,6.583L23,10.645l-5,5.121L19.18,23,13,19.583,6.82,23,8,15.766,3,10.645,9.91,9.583Z" transform="translate(171 183)" fill="#a300cf" stroke="#a300cf" stroke-linecap="round" stroke-linejoin="round" stroke-width="2"/>
    <path id="empty-star-4" data-name="empty-star" d="M13,3l3.09,6.583L23,10.645l-5,5.121L19.18,23,13,19.583,6.82,23,8,15.766,3,10.645,9.91,9.583Z" transform="translate(194 183)" fill="#a300cf" stroke="#a300cf" stroke-linecap="round" stroke-linejoin="round" stroke-width="2"/>
    <path id="empty-star-5" data-name="empty-star" d="M13,3l3.09,6.583L23,10.645l-5,5.121L19.18,23,13,19.583,6.82,23,8,15.766,3,10.645,9.91,9.583Z" transform="translate(217 183)" fill="#a300cf" stroke="#a300cf" stroke-linecap="round" stroke-linejoin="round" stroke-width="2"/>
  </g>
</svg>
