<svg width="279" height="253" viewBox="0 0 279 253" fill="none" xmlns="http://www.w3.org/2000/svg">
<path d="M271.513 147.812L137.041 35.243L56.1931 2.91602L53.4111 88.97C36.3031 83.754 2.06908 88.735 2.00008 150.385C1.93208 212.034 47.0791 242.757 69.6611 250.412C86.6691 251.259 138.67 246.474 210.611 220.564C282.551 194.654 281.187 161.267 271.513 147.812Z" fill="url(#paint0_linear)"/>
<path fill-rule="evenodd" clip-rule="evenodd" d="M138.08 33.505L272.99 146.439L273.137 146.644C278.407 153.974 281.251 166.52 273.411 180.496C265.629 194.37 247.457 209.419 211.288 222.446C139.18 248.416 86.9081 253.273 69.5621 252.41L69.2831 252.396L69.0191 252.306C45.9231 244.477 -0.0699202 213.167 7.98123e-05 150.382C0.0350798 119.227 8.70808 101.846 20.0901 93.022C30.4311 85.005 42.6051 84.368 51.4931 86.393L54.2861 0L138.08 33.505ZM136.002 36.982L58.0991 5.833L55.3261 91.645L52.8281 90.883C44.7181 88.411 32.6031 88.383 22.5411 96.183C12.5121 103.958 4.03408 119.893 4.00008 150.387C3.93308 210.66 47.8841 240.797 70.0391 248.428C87.0011 249.192 138.555 244.39 209.933 218.682C245.704 205.799 262.821 191.199 269.923 178.539C276.892 166.115 274.349 155.339 270.031 149.18L136.002 36.982Z" fill="url(#paint1_linear)"/>
<path d="M250.691 147.178L142.814 56.873L77.9241 30.978L75.6141 100.107C61.8811 95.932 34.3871 99.964 34.2771 149.487C34.1661 199.009 70.3911 223.649 88.5171 229.778C102.173 230.442 143.933 226.552 201.723 205.675C259.512 184.797 258.447 157.978 250.691 147.178Z" fill="url(#paint2_linear)"/>
<path fill-rule="evenodd" clip-rule="evenodd" d="M143.853 55.1339L252.168 145.807L252.315 146.011C256.628 152.016 258.914 162.256 252.53 173.626C246.202 184.896 231.495 197.045 202.402 207.556C144.445 228.494 102.415 232.457 88.4201 231.775L88.1411 231.762L87.8761 231.672C69.2341 225.369 32.1641 200.142 32.2771 149.482C32.3321 124.39 39.3321 110.281 48.6101 103.08C56.8561 96.6819 66.5171 96.0409 73.6981 97.5539L76.0201 28.0649L143.853 55.1339ZM141.776 58.612L79.8281 33.8909L77.5251 102.778L75.0321 102.02C68.6111 100.068 59.0241 100.062 51.0631 106.24C43.1341 112.393 36.3311 125.061 36.2771 149.491C36.1691 197.636 71.1961 221.688 88.8931 227.793C102.504 228.375 143.817 224.468 201.043 203.794C229.739 193.426 243.394 181.727 249.042 171.668C254.557 161.846 252.567 153.376 249.208 148.545L141.776 58.612Z" fill="url(#paint3_linear)"/>
<defs>
<linearGradient id="paint0_linear" x1="186.085" y1="164.159" x2="1.4141" y2="96.1359" gradientUnits="userSpaceOnUse">
<stop stop-color="#A300CF" stop-opacity="0"/>
<stop offset="1" stop-color="#176087" stop-opacity="0.1"/>
</linearGradient>
<linearGradient id="paint1_linear" x1="186.085" y1="164.159" x2="1.4141" y2="96.1359" gradientUnits="userSpaceOnUse">
<stop stop-color="#A300CF" stop-opacity="0"/>
<stop offset="1" stop-color="#176087" stop-opacity="0.1"/>
</linearGradient>
<linearGradient id="paint2_linear" x1="186.085" y1="164.159" x2="1.4141" y2="96.1359" gradientUnits="userSpaceOnUse">
<stop stop-color="#A300CF" stop-opacity="0"/>
<stop offset="1" stop-color="#176087" stop-opacity="0.1"/>
</linearGradient>
<linearGradient id="paint3_linear" x1="186.085" y1="164.159" x2="1.4141" y2="96.1359" gradientUnits="userSpaceOnUse">
<stop stop-color="#A300CF" stop-opacity="0"/>
<stop offset="1" stop-color="#176087" stop-opacity="0.1"/>
</linearGradient>
</defs>
</svg>
