<svg width="328" height="291" viewBox="0 0 328 291" fill="none" xmlns="http://www.w3.org/2000/svg">
<path d="M32.6325 105.582L9.01465 215.674L154.834 229.718L216.624 289.749L326.561 183.704C313.763 151.311 279.474 78.97 244.697 48.7599C209.92 18.5496 167.845 33.9411 151.155 45.4132L32.6325 105.582Z" fill="url(#paint0_linear)"/>
<path fill-rule="evenodd" clip-rule="evenodd" d="M191.188 31.9537C174.332 33.4507 159.722 40.1315 151.438 45.8252L151.411 45.844L33.0715 105.92L9.6214 215.23L155.057 229.238L216.626 289.053L325.973 183.577C319.554 167.376 307.849 141.382 293.435 115.658C278.921 89.7569 261.689 64.1829 244.37 49.1373C227.101 34.136 208.029 30.4579 191.188 31.9537ZM191.1 30.9576C208.163 29.4421 227.517 33.1734 245.025 48.3824C262.482 63.5471 279.783 89.2489 294.307 115.169C308.839 141.101 320.62 167.305 327.026 183.521L327.149 183.832L216.623 290.445L154.612 230.199L8.4082 216.118L32.1938 105.245L150.899 44.9823C159.311 39.2082 174.07 32.4701 191.1 30.9576Z" fill="url(#paint1_linear)"/>
<path d="M24.6032 75.617L0.985352 185.708L146.805 199.753L208.595 259.783L318.531 153.739C305.734 121.345 271.445 49.0048 236.668 18.7944C201.891 -11.4159 159.816 3.97556 143.126 15.4477L24.6032 75.617Z" fill="url(#paint2_linear)"/>
<path fill-rule="evenodd" clip-rule="evenodd" d="M183.159 1.98812C166.303 3.48512 151.693 10.1659 143.409 15.8596L143.382 15.8784L25.0423 75.9548L1.59211 185.264L147.028 199.272L208.597 259.087L317.943 153.612C311.525 137.41 299.82 111.416 285.406 85.6919C270.892 59.7909 253.66 34.2173 236.34 19.1718C219.071 4.17042 200 0.49232 183.159 1.98812ZM183.07 0.99202C200.134 -0.52348 219.488 3.20792 236.996 18.4168C254.453 33.5816 271.754 59.2833 286.278 85.2029C300.809 111.136 312.59 137.34 318.997 153.555L319.119 153.866L208.594 260.479L146.583 200.234L0.378906 186.152L24.1645 75.2789L142.87 15.0167C151.281 9.24262 166.04 2.50452 183.07 0.99202Z" fill="url(#paint3_linear)"/>
<defs>
<linearGradient id="paint0_linear" x1="118.94" y1="17.3854" x2="185.545" y2="265.959" gradientUnits="userSpaceOnUse">
<stop stop-color="#176087" stop-opacity="0.05"/>
<stop offset="0.470047" stop-color="#5933A9" stop-opacity="0.0264977"/>
<stop offset="1" stop-color="#A300CF" stop-opacity="0"/>
</linearGradient>
<linearGradient id="paint1_linear" x1="118.94" y1="17.3854" x2="185.545" y2="265.959" gradientUnits="userSpaceOnUse">
<stop stop-color="#176087" stop-opacity="0.05"/>
<stop offset="0.470047" stop-color="#5933A9" stop-opacity="0.0264977"/>
<stop offset="1" stop-color="#A300CF" stop-opacity="0"/>
</linearGradient>
<linearGradient id="paint2_linear" x1="118.94" y1="17.3854" x2="185.545" y2="265.959" gradientUnits="userSpaceOnUse">
<stop stop-color="#176087" stop-opacity="0.05"/>
<stop offset="0.470047" stop-color="#5933A9" stop-opacity="0.0264977"/>
<stop offset="1" stop-color="#A300CF" stop-opacity="0"/>
</linearGradient>
<linearGradient id="paint3_linear" x1="118.94" y1="17.3854" x2="185.545" y2="265.959" gradientUnits="userSpaceOnUse">
<stop stop-color="#176087" stop-opacity="0.05"/>
<stop offset="0.470047" stop-color="#5933A9" stop-opacity="0.0264977"/>
<stop offset="1" stop-color="#A300CF" stop-opacity="0"/>
</linearGradient>
</defs>
</svg>
