<svg width="85" height="78" viewBox="0 0 85 78" fill="none" xmlns="http://www.w3.org/2000/svg">
<path d="M14.2196 17.0616L0.700684 43.4707L36.856 56.9897L48.4886 76.4821L83.7007 56.9897C82.6527 47.8722 78.859 27.1222 72.0681 17.0616C65.2772 7.001 53.5189 8.04898 48.4886 9.83054L14.2196 17.0616Z" fill="url(#paint0_linear)" fill-opacity="0.08"/>
<path fill-rule="evenodd" clip-rule="evenodd" d="M59.5321 9.49778C55.2102 8.74158 51.1004 9.436 48.6556 10.3019L48.6244 10.3129L14.5562 17.5016L1.40164 43.1989L37.1956 56.5828L48.67 75.8102L83.1653 56.7146C82.624 52.1501 81.4295 44.8816 79.5535 37.5025C77.6279 29.9282 74.9985 22.2964 71.6538 17.3413C68.3469 12.4422 63.8394 10.2514 59.5321 9.49778ZM59.7044 8.51275C64.2315 9.30486 68.9987 11.6204 72.4827 16.7819C75.9289 21.8875 78.5918 29.6609 80.5227 37.2561C82.4571 44.8649 83.6713 52.3541 84.1975 56.9326L84.2358 57.265L48.3074 77.154L36.5167 57.3966L0 43.7425L13.8833 16.6216L48.3533 9.34811C50.942 8.43772 55.2101 7.72638 59.7044 8.51275Z" fill="url(#paint1_linear)"/>
<path d="M14.2196 8.88729L0.700684 35.2964L36.856 48.8153L48.4886 68.3078L83.7007 48.8153C82.6527 39.6979 78.859 18.9479 72.0681 8.88729C65.2772 -1.17332 53.5189 -0.12534 48.4886 1.65622L14.2196 8.88729Z" fill="url(#paint2_linear)" fill-opacity="0.08"/>
<path fill-rule="evenodd" clip-rule="evenodd" d="M59.5321 1.32347C55.2102 0.567268 51.1004 1.26168 48.6556 2.12755L48.6244 2.13861L14.5562 9.32731L1.40164 35.0246L37.1956 48.4085L48.67 67.6359L83.1653 48.5403C82.624 43.9757 81.4295 36.7073 79.5535 29.3282C77.6279 21.7539 74.9985 14.122 71.6538 9.16703C68.3469 4.26792 63.8394 2.07712 59.5321 1.32347ZM59.7044 0.33843C64.2315 1.13054 68.9987 3.44606 72.4827 8.60756C75.9289 13.7131 78.5918 21.4866 80.5227 29.0818C82.4571 36.6906 83.6713 44.1797 84.1975 48.7583L84.2358 49.0907L48.3074 68.9796L36.5167 49.2222L0 35.5681L13.8833 8.44728L48.3533 1.17379C50.942 0.263399 55.2101 -0.447941 59.7044 0.33843Z" fill="url(#paint3_linear)"/>
<defs>
<linearGradient id="paint0_linear" x1="42.2007" y1="8.67432" x2="42.2007" y2="76.4821" gradientUnits="userSpaceOnUse">
<stop stop-color="#A300CF"/>
<stop offset="1" stop-color="#176087" stop-opacity="0"/>
</linearGradient>
<linearGradient id="paint1_linear" x1="42.2008" y1="8.67432" x2="42.2008" y2="76.4821" gradientUnits="userSpaceOnUse">
<stop stop-color="#176087" stop-opacity="0.08"/>
<stop offset="1" stop-color="#A300CF" stop-opacity="0"/>
</linearGradient>
<linearGradient id="paint2_linear" x1="42.2007" y1="0.500001" x2="42.2007" y2="68.3078" gradientUnits="userSpaceOnUse">
<stop stop-color="#A300CF"/>
<stop offset="1" stop-color="#176087" stop-opacity="0"/>
</linearGradient>
<linearGradient id="paint3_linear" x1="42.2008" y1="0.500008" x2="42.2008" y2="68.3078" gradientUnits="userSpaceOnUse">
<stop stop-color="#176087" stop-opacity="0.08"/>
<stop offset="1" stop-color="#A300CF" stop-opacity="0"/>
</linearGradient>
</defs>
</svg>
