<svg xmlns="http://www.w3.org/2000/svg" xmlns:xlink="http://www.w3.org/1999/xlink" width="184.776" height="177.878" viewBox="0 0 184.776 177.878">
  <defs>
    <linearGradient id="linear-gradient" x1="0.5" x2="0.318" y2="1" gradientUnits="objectBoundingBox">
      <stop offset="0" stop-color="#d2e2eb" stop-opacity="0.122"/>
      <stop offset="1" stop-color="#a300cf" stop-opacity="0.102"/>
    </linearGradient>
    <filter id="small-shape1" x="0" y="0" width="184.776" height="177.878" filterUnits="userSpaceOnUse">
      <feOffset dy="3" input="SourceAlpha"/>
      <feGaussianBlur stdDeviation="3" result="blur"/>
      <feFlood flood-opacity="0.09"/>
      <feComposite operator="in" in2="blur"/>
      <feComposite in="SourceGraphic"/>
    </filter>
  </defs>
  <g id="city" transform="translate(-984.28 -1097.027)">
    <g transform="matrix(1, 0, 0, 1, 984.28, 1097.03)" filter="url(#small-shape1)">
      <path id="small-shape1-2" data-name="small-shape1" d="M34.051-1.143c6.116,4.129,68.4,14.837,68.4,14.837l-2.424,66.257L57.587,73.388c-27.475,65.76-27.958,46.333-27.958,46.333L-2.523,77.875,3.159,24.758,14.65,9.935Z" transform="translate(119.73 12.47) rotate(60)" stroke="rgba(112,112,112,0.05)" stroke-width="5" fill="url(#linear-gradient)"/>
    </g>
    <path id="Icon_awesome-city" data-name="Icon awesome-city" d="M74.766,23.3H58.259V2.913A2.912,2.912,0,0,0,55.346,0H37.868a2.912,2.912,0,0,0-2.913,2.913v8.739H27.188V1.942A1.941,1.941,0,0,0,25.246,0H23.3a1.941,1.941,0,0,0-1.942,1.942v9.71H13.594V1.942A1.941,1.941,0,0,0,11.652,0H9.71A1.941,1.941,0,0,0,7.768,1.942v9.71H2.913A2.912,2.912,0,0,0,0,14.565V58.259a3.884,3.884,0,0,0,3.884,3.884H73.795a3.884,3.884,0,0,0,3.884-3.884V26.217A2.913,2.913,0,0,0,74.766,23.3ZM15.536,49.035a1.456,1.456,0,0,1-1.456,1.456H9.224a1.456,1.456,0,0,1-1.456-1.456V44.18a1.456,1.456,0,0,1,1.456-1.456h4.855a1.456,1.456,0,0,1,1.456,1.456Zm0-11.652a1.456,1.456,0,0,1-1.456,1.456H9.224a1.456,1.456,0,0,1-1.456-1.456V32.528a1.456,1.456,0,0,1,1.456-1.456h4.855a1.456,1.456,0,0,1,1.456,1.456Zm0-11.652a1.456,1.456,0,0,1-1.456,1.456H9.224a1.456,1.456,0,0,1-1.456-1.456V20.876A1.456,1.456,0,0,1,9.224,19.42h4.855a1.456,1.456,0,0,1,1.456,1.456Zm15.536,23.3a1.456,1.456,0,0,1-1.456,1.456H24.76A1.456,1.456,0,0,1,23.3,49.035V44.18a1.456,1.456,0,0,1,1.456-1.456h4.855a1.456,1.456,0,0,1,1.456,1.456Zm0-11.652a1.456,1.456,0,0,1-1.456,1.456H24.76A1.456,1.456,0,0,1,23.3,37.383V32.528a1.456,1.456,0,0,1,1.456-1.456h4.855a1.456,1.456,0,0,1,1.456,1.456Zm0-11.652a1.456,1.456,0,0,1-1.456,1.456H24.76A1.456,1.456,0,0,1,23.3,25.731V20.876A1.456,1.456,0,0,1,24.76,19.42h4.855a1.456,1.456,0,0,1,1.456,1.456Zm19.42,11.652a1.456,1.456,0,0,1-1.456,1.456H44.18a1.456,1.456,0,0,1-1.456-1.456V32.528a1.456,1.456,0,0,1,1.456-1.456h4.855a1.456,1.456,0,0,1,1.456,1.456Zm0-11.652a1.456,1.456,0,0,1-1.456,1.456H44.18a1.456,1.456,0,0,1-1.456-1.456V20.876A1.456,1.456,0,0,1,44.18,19.42h4.855a1.456,1.456,0,0,1,1.456,1.456Zm0-11.652a1.456,1.456,0,0,1-1.456,1.456H44.18a1.456,1.456,0,0,1-1.456-1.456V9.224A1.456,1.456,0,0,1,44.18,7.768h4.855a1.456,1.456,0,0,1,1.456,1.456Zm19.42,34.955a1.456,1.456,0,0,1-1.456,1.456H63.6a1.456,1.456,0,0,1-1.456-1.456V44.18A1.456,1.456,0,0,1,63.6,42.723h4.855a1.456,1.456,0,0,1,1.456,1.456Zm0-11.652a1.456,1.456,0,0,1-1.456,1.456H63.6a1.456,1.456,0,0,1-1.456-1.456V32.528A1.456,1.456,0,0,1,63.6,31.071h4.855a1.456,1.456,0,0,1,1.456,1.456Z" transform="translate(1047 1135.538)" fill="#0a2239"/>
  </g>
</svg>
