<svg width="3541" height="2717" viewBox="0 0 3541 2717" fill="none" xmlns="http://www.w3.org/2000/svg">
<circle cx="2825.56" cy="1480.88" r="12.0677" fill="#B9B5B5"/>
<circle cx="2825.56" cy="1725.68" r="12.0677" fill="#B9B5B5"/>
<circle cx="2825.56" cy="1970.48" r="12.0677" fill="#B9B5B5"/>
<circle cx="3060.02" cy="1480.88" r="12.0677" fill="#B9B5B5"/>
<circle cx="3060.02" cy="1725.68" r="12.0677" fill="#B9B5B5"/>
<circle cx="3060.02" cy="1970.48" r="12.0677" fill="#B9B5B5"/>
<circle cx="3294.47" cy="1480.88" r="12.0677" fill="#B9B5B5"/>
<circle cx="3294.47" cy="1725.68" r="12.0677" fill="#B9B5B5"/>
<circle cx="3294.47" cy="1970.48" r="12.0677" fill="#B9B5B5"/>
<circle cx="3528.93" cy="1480.88" r="12.0677" fill="#B9B5B5"/>
<circle cx="3528.93" cy="1725.68" r="12.0677" fill="#B9B5B5"/>
<circle cx="3528.93" cy="1970.48" r="12.0677" fill="#B9B5B5"/>
<circle cx="2825.56" cy="2215.28" r="12.0677" fill="#B9B5B5"/>
<circle cx="2825.56" cy="2460.08" r="12.0677" fill="#B9B5B5"/>
<circle cx="2825.56" cy="2704.88" r="12.0677" fill="#B9B5B5"/>
<circle cx="3060.02" cy="2215.28" r="12.0677" fill="#B9B5B5"/>
<circle cx="3060.02" cy="2460.08" r="12.0677" fill="#B9B5B5"/>
<circle cx="3060.02" cy="2704.88" r="12.0677" fill="#B9B5B5"/>
<circle cx="3294.47" cy="2215.28" r="12.0677" fill="#B9B5B5"/>
<circle cx="3294.47" cy="2460.08" r="12.0677" fill="#B9B5B5"/>
<circle cx="3294.47" cy="2704.88" r="12.0677" fill="#B9B5B5"/>
<circle cx="3528.93" cy="2215.28" r="12.0677" fill="#B9B5B5"/>
<circle cx="3528.93" cy="2460.08" r="12.0677" fill="#B9B5B5"/>
<circle cx="3528.93" cy="2704.88" r="12.0677" fill="#B9B5B5"/>
<circle cx="1887.73" cy="1480.88" r="12.0677" fill="#B9B5B5"/>
<circle cx="1887.73" cy="1725.68" r="12.0677" fill="#B9B5B5"/>
<circle cx="1887.73" cy="1970.48" r="12.0677" fill="#B9B5B5"/>
<circle cx="2122.19" cy="1480.88" r="12.0677" fill="#B9B5B5"/>
<circle cx="2122.19" cy="1725.68" r="12.0677" fill="#B9B5B5"/>
<circle cx="2122.19" cy="1970.48" r="12.0677" fill="#B9B5B5"/>
<circle cx="2356.64" cy="1480.88" r="12.0677" fill="#B9B5B5"/>
<circle cx="2356.64" cy="1725.68" r="12.0677" fill="#B9B5B5"/>
<circle cx="2356.64" cy="1970.48" r="12.0677" fill="#B9B5B5"/>
<circle cx="2591.1" cy="1480.88" r="12.0677" fill="#B9B5B5"/>
<circle cx="2591.1" cy="1725.68" r="12.0677" fill="#B9B5B5"/>
<circle cx="2591.1" cy="1970.48" r="12.0677" fill="#B9B5B5"/>
<circle cx="1887.73" cy="2215.28" r="12.0677" fill="#B9B5B5"/>
<circle cx="1887.73" cy="2460.08" r="12.0677" fill="#B9B5B5"/>
<circle cx="1887.73" cy="2704.88" r="12.0677" fill="#B9B5B5"/>
<circle cx="2122.19" cy="2215.28" r="12.0677" fill="#B9B5B5"/>
<circle cx="2122.19" cy="2460.08" r="12.0677" fill="#B9B5B5"/>
<circle cx="2122.19" cy="2704.88" r="12.0677" fill="#B9B5B5"/>
<circle cx="2356.64" cy="2215.28" r="12.0677" fill="#B9B5B5"/>
<circle cx="2356.64" cy="2460.08" r="12.0677" fill="#B9B5B5"/>
<circle cx="2356.64" cy="2704.88" r="12.0677" fill="#B9B5B5"/>
<circle cx="2591.1" cy="2215.28" r="12.0677" fill="#B9B5B5"/>
<circle cx="2591.1" cy="2460.08" r="12.0677" fill="#B9B5B5"/>
<circle cx="2591.1" cy="2704.88" r="12.0677" fill="#B9B5B5"/>
<circle cx="2825.56" cy="12.0677" r="12.0677" fill="#B9B5B5"/>
<circle cx="2825.56" cy="256.869" r="12.0677" fill="#B9B5B5"/>
<circle cx="2825.56" cy="501.67" r="12.0677" fill="#B9B5B5"/>
<circle cx="3060.02" cy="12.0677" r="12.0677" fill="#B9B5B5"/>
<circle cx="3060.02" cy="256.869" r="12.0677" fill="#B9B5B5"/>
<circle cx="3060.02" cy="501.67" r="12.0677" fill="#B9B5B5"/>
<circle cx="3294.47" cy="12.0677" r="12.0677" fill="#B9B5B5"/>
<circle cx="3294.47" cy="256.869" r="12.0677" fill="#B9B5B5"/>
<circle cx="3294.47" cy="501.67" r="12.0677" fill="#B9B5B5"/>
<circle cx="3528.93" cy="12.0677" r="12.0677" fill="#B9B5B5"/>
<circle cx="3528.93" cy="256.869" r="12.0677" fill="#B9B5B5"/>
<circle cx="3528.93" cy="501.67" r="12.0677" fill="#B9B5B5"/>
<circle cx="2825.56" cy="746.472" r="12.0677" fill="#B9B5B5"/>
<circle cx="2825.56" cy="991.273" r="12.0677" fill="#B9B5B5"/>
<circle cx="2825.56" cy="1236.07" r="12.0677" fill="#B9B5B5"/>
<circle cx="3060.02" cy="746.472" r="12.0677" fill="#B9B5B5"/>
<circle cx="3060.02" cy="991.273" r="12.0677" fill="#B9B5B5"/>
<circle cx="3060.02" cy="1236.07" r="12.0677" fill="#B9B5B5"/>
<circle cx="3294.47" cy="746.472" r="12.0677" fill="#B9B5B5"/>
<circle cx="3294.47" cy="991.273" r="12.0677" fill="#B9B5B5"/>
<circle cx="3294.47" cy="1236.07" r="12.0677" fill="#B9B5B5"/>
<circle cx="3528.93" cy="746.472" r="12.0677" fill="#B9B5B5"/>
<circle cx="3528.93" cy="991.273" r="12.0677" fill="#B9B5B5"/>
<circle cx="3528.93" cy="1236.07" r="12.0677" fill="#B9B5B5"/>
<circle cx="1887.73" cy="12.0677" r="12.0677" fill="#B9B5B5"/>
<circle cx="1887.73" cy="256.869" r="12.0677" fill="#B9B5B5"/>
<circle cx="1887.73" cy="501.67" r="12.0677" fill="#B9B5B5"/>
<circle cx="2122.19" cy="12.0677" r="12.0677" fill="#B9B5B5"/>
<circle cx="2122.19" cy="256.869" r="12.0677" fill="#B9B5B5"/>
<circle cx="2122.19" cy="501.67" r="12.0677" fill="#B9B5B5"/>
<circle cx="2356.64" cy="12.0677" r="12.0677" fill="#B9B5B5"/>
<circle cx="2356.64" cy="256.869" r="12.0677" fill="#B9B5B5"/>
<circle cx="2356.64" cy="501.67" r="12.0677" fill="#B9B5B5"/>
<circle cx="2591.1" cy="12.0677" r="12.0677" fill="#B9B5B5"/>
<circle cx="2591.1" cy="256.869" r="12.0677" fill="#B9B5B5"/>
<circle cx="2591.1" cy="501.67" r="12.0677" fill="#B9B5B5"/>
<circle cx="1887.73" cy="746.472" r="12.0677" fill="#B9B5B5"/>
<circle cx="1887.73" cy="991.273" r="12.0677" fill="#B9B5B5"/>
<circle cx="1887.73" cy="1236.07" r="12.0677" fill="#B9B5B5"/>
<circle cx="2122.19" cy="746.472" r="12.0677" fill="#B9B5B5"/>
<circle cx="2122.19" cy="991.273" r="12.0677" fill="#B9B5B5"/>
<circle cx="2122.19" cy="1236.07" r="12.0677" fill="#B9B5B5"/>
<circle cx="2356.64" cy="746.472" r="12.0677" fill="#B9B5B5"/>
<circle cx="2356.64" cy="991.273" r="12.0677" fill="#B9B5B5"/>
<circle cx="2356.64" cy="1236.07" r="12.0677" fill="#B9B5B5"/>
<circle cx="2591.1" cy="746.472" r="12.0677" fill="#B9B5B5"/>
<circle cx="2591.1" cy="991.273" r="12.0677" fill="#B9B5B5"/>
<circle cx="2591.1" cy="1236.07" r="12.0677" fill="#B9B5B5"/>
<circle cx="949.898" cy="1480.88" r="12.0677" fill="#B9B5B5"/>
<circle cx="949.898" cy="1725.68" r="12.0677" fill="#B9B5B5"/>
<circle cx="949.898" cy="1970.48" r="12.0677" fill="#B9B5B5"/>
<circle cx="1184.36" cy="1480.88" r="12.0677" fill="#B9B5B5"/>
<circle cx="1184.36" cy="1725.68" r="12.0677" fill="#B9B5B5"/>
<circle cx="1184.36" cy="1970.48" r="12.0677" fill="#B9B5B5"/>
<circle cx="1418.81" cy="1480.88" r="12.0677" fill="#B9B5B5"/>
<circle cx="1418.81" cy="1725.68" r="12.0677" fill="#B9B5B5"/>
<circle cx="1418.81" cy="1970.48" r="12.0677" fill="#B9B5B5"/>
<circle cx="1653.27" cy="1480.88" r="12.0677" fill="#B9B5B5"/>
<circle cx="1653.27" cy="1725.68" r="12.0677" fill="#B9B5B5"/>
<circle cx="1653.27" cy="1970.48" r="12.0677" fill="#B9B5B5"/>
<circle cx="949.898" cy="2215.28" r="12.0677" fill="#B9B5B5"/>
<circle cx="949.898" cy="2460.08" r="12.0677" fill="#B9B5B5"/>
<circle cx="949.898" cy="2704.88" r="12.0677" fill="#B9B5B5"/>
<circle cx="1184.36" cy="2215.28" r="12.0677" fill="#B9B5B5"/>
<circle cx="1184.36" cy="2460.08" r="12.0677" fill="#B9B5B5"/>
<circle cx="1184.36" cy="2704.88" r="12.0677" fill="#B9B5B5"/>
<circle cx="1418.81" cy="2215.28" r="12.0677" fill="#B9B5B5"/>
<circle cx="1418.81" cy="2460.08" r="12.0677" fill="#B9B5B5"/>
<circle cx="1418.81" cy="2704.88" r="12.0677" fill="#B9B5B5"/>
<circle cx="1653.27" cy="2215.28" r="12.0677" fill="#B9B5B5"/>
<circle cx="1653.27" cy="2460.08" r="12.0677" fill="#B9B5B5"/>
<circle cx="1653.27" cy="2704.88" r="12.0677" fill="#B9B5B5"/>
<circle cx="12.0677" cy="1480.88" r="12.0677" fill="#B9B5B5"/>
<circle cx="12.0677" cy="1725.68" r="12.0677" fill="#B9B5B5"/>
<circle cx="12.0677" cy="1970.48" r="12.0677" fill="#B9B5B5"/>
<circle cx="246.526" cy="1480.88" r="12.0677" fill="#B9B5B5"/>
<circle cx="246.526" cy="1725.68" r="12.0677" fill="#B9B5B5"/>
<circle cx="246.526" cy="1970.48" r="12.0677" fill="#B9B5B5"/>
<circle cx="480.983" cy="1480.88" r="12.0677" fill="#B9B5B5"/>
<circle cx="480.983" cy="1725.68" r="12.0677" fill="#B9B5B5"/>
<circle cx="480.983" cy="1970.48" r="12.0677" fill="#B9B5B5"/>
<circle cx="715.441" cy="1480.88" r="12.0677" fill="#B9B5B5"/>
<circle cx="715.441" cy="1725.68" r="12.0677" fill="#B9B5B5"/>
<circle cx="715.441" cy="1970.48" r="12.0677" fill="#B9B5B5"/>
<circle cx="12.0677" cy="2215.28" r="12.0677" fill="#B9B5B5"/>
<circle cx="12.0677" cy="2460.08" r="12.0677" fill="#B9B5B5"/>
<circle cx="12.0677" cy="2704.88" r="12.0677" fill="#B9B5B5"/>
<circle cx="246.526" cy="2215.28" r="12.0677" fill="#B9B5B5"/>
<circle cx="246.526" cy="2460.08" r="12.0677" fill="#B9B5B5"/>
<circle cx="246.526" cy="2704.88" r="12.0677" fill="#B9B5B5"/>
<circle cx="480.983" cy="2215.28" r="12.0677" fill="#B9B5B5"/>
<circle cx="480.983" cy="2460.08" r="12.0677" fill="#B9B5B5"/>
<circle cx="480.983" cy="2704.88" r="12.0677" fill="#B9B5B5"/>
<circle cx="715.441" cy="2215.28" r="12.0677" fill="#B9B5B5"/>
<circle cx="715.441" cy="2460.08" r="12.0677" fill="#B9B5B5"/>
<circle cx="715.441" cy="2704.88" r="12.0677" fill="#B9B5B5"/>
<circle cx="949.898" cy="12.0677" r="12.0677" fill="#B9B5B5"/>
<circle cx="949.898" cy="256.869" r="12.0677" fill="#B9B5B5"/>
<circle cx="949.898" cy="501.67" r="12.0677" fill="#B9B5B5"/>
<circle cx="1184.36" cy="12.0677" r="12.0677" fill="#B9B5B5"/>
<circle cx="1184.36" cy="256.869" r="12.0677" fill="#B9B5B5"/>
<circle cx="1184.36" cy="501.67" r="12.0677" fill="#B9B5B5"/>
<circle cx="1418.81" cy="12.0677" r="12.0677" fill="#B9B5B5"/>
<circle cx="1418.81" cy="256.869" r="12.0677" fill="#B9B5B5"/>
<circle cx="1418.81" cy="501.67" r="12.0677" fill="#B9B5B5"/>
<circle cx="1653.27" cy="12.0677" r="12.0677" fill="#B9B5B5"/>
<circle cx="1653.27" cy="256.869" r="12.0677" fill="#B9B5B5"/>
<circle cx="1653.27" cy="501.67" r="12.0677" fill="#B9B5B5"/>
<circle cx="949.898" cy="746.472" r="12.0677" fill="#B9B5B5"/>
<circle cx="949.898" cy="991.273" r="12.0677" fill="#B9B5B5"/>
<circle cx="949.898" cy="1236.07" r="12.0677" fill="#B9B5B5"/>
<circle cx="1184.36" cy="746.472" r="12.0677" fill="#B9B5B5"/>
<circle cx="1184.36" cy="991.273" r="12.0677" fill="#B9B5B5"/>
<circle cx="1184.36" cy="1236.07" r="12.0677" fill="#B9B5B5"/>
<circle cx="1418.81" cy="746.472" r="12.0677" fill="#B9B5B5"/>
<circle cx="1418.81" cy="991.273" r="12.0677" fill="#B9B5B5"/>
<circle cx="1418.81" cy="1236.07" r="12.0677" fill="#B9B5B5"/>
<circle cx="1653.27" cy="746.472" r="12.0677" fill="#B9B5B5"/>
<circle cx="1653.27" cy="991.273" r="12.0677" fill="#B9B5B5"/>
<circle cx="1653.27" cy="1236.07" r="12.0677" fill="#B9B5B5"/>
<circle cx="12.0677" cy="12.0677" r="12.0677" fill="#B9B5B5"/>
<circle cx="12.0677" cy="256.869" r="12.0677" fill="#B9B5B5"/>
<circle cx="12.0677" cy="501.67" r="12.0677" fill="#B9B5B5"/>
<circle cx="246.526" cy="12.0677" r="12.0677" fill="#B9B5B5"/>
<circle cx="246.526" cy="256.869" r="12.0677" fill="#B9B5B5"/>
<circle cx="246.526" cy="501.67" r="12.0677" fill="#B9B5B5"/>
<circle cx="480.983" cy="12.0677" r="12.0677" fill="#B9B5B5"/>
<circle cx="480.983" cy="256.869" r="12.0677" fill="#B9B5B5"/>
<circle cx="480.983" cy="501.67" r="12.0677" fill="#B9B5B5"/>
<circle cx="715.441" cy="12.0677" r="12.0677" fill="#B9B5B5"/>
<circle cx="715.441" cy="256.869" r="12.0677" fill="#B9B5B5"/>
<circle cx="715.441" cy="501.67" r="12.0677" fill="#B9B5B5"/>
<circle cx="12.0677" cy="746.472" r="12.0677" fill="#B9B5B5"/>
<circle cx="12.0677" cy="991.273" r="12.0677" fill="#B9B5B5"/>
<circle cx="12.0677" cy="1236.07" r="12.0677" fill="#B9B5B5"/>
<circle cx="246.526" cy="746.472" r="12.0677" fill="#B9B5B5"/>
<circle cx="246.526" cy="991.273" r="12.0677" fill="#B9B5B5"/>
<circle cx="246.526" cy="1236.07" r="12.0677" fill="#B9B5B5"/>
<circle cx="480.983" cy="746.472" r="12.0677" fill="#B9B5B5"/>
<circle cx="480.983" cy="991.273" r="12.0677" fill="#B9B5B5"/>
<circle cx="480.983" cy="1236.07" r="12.0677" fill="#B9B5B5"/>
<circle cx="715.441" cy="746.472" r="12.0677" fill="#B9B5B5"/>
<circle cx="715.441" cy="991.273" r="12.0677" fill="#B9B5B5"/>
<circle cx="715.441" cy="1236.07" r="12.0677" fill="#B9B5B5"/>
</svg>
