<svg xmlns="http://www.w3.org/2000/svg" width="85.731" height="16.472" viewBox="0 0 85.731 16.472">
  <g id="empty-stars" transform="translate(0.5 0.5)">
    <path id="Icon_feather-star" data-name="Icon feather-star" d="M11.021,3,13.5,8.092l5.543.822-4.011,3.962.946,5.6-4.957-2.644L6.064,18.472l.946-5.6L3,8.914l5.543-.822Z" transform="translate(65.689 -3)" fill="none" stroke="#cbad34" stroke-linecap="round" stroke-linejoin="round" stroke-width="1"/>
    <path id="Icon_feather-star-2" data-name="Icon feather-star" d="M11.021,3,13.5,8.092l5.543.822-4.011,3.962.946,5.6-4.957-2.644L6.064,18.472l.946-5.6L3,8.914l5.543-.822Z" transform="translate(48.517 -3)" fill="none" stroke="#cbad34" stroke-linecap="round" stroke-linejoin="round" stroke-width="1"/>
    <path id="Icon_feather-star-3" data-name="Icon feather-star" d="M11.021,3,13.5,8.092l5.543.822-4.011,3.962.946,5.6-4.957-2.644L6.064,18.472l.946-5.6L3,8.914l5.543-.822Z" transform="translate(31.345 -3)" fill="none" stroke="#cbad34" stroke-linecap="round" stroke-linejoin="round" stroke-width="1"/>
    <path id="Icon_feather-star-4" data-name="Icon feather-star" d="M11.021,3,13.5,8.092l5.543.822-4.011,3.962.946,5.6-4.957-2.644L6.064,18.472l.946-5.6L3,8.914l5.543-.822Z" transform="translate(14.172 -3)" fill="none" stroke="#cbad34" stroke-linecap="round" stroke-linejoin="round" stroke-width="1"/>
    <path id="Icon_feather-star-5" data-name="Icon feather-star" d="M11.021,3,13.5,8.092l5.543.822-4.011,3.962.946,5.6-4.957-2.644L6.064,18.472l.946-5.6L3,8.914l5.543-.822Z" transform="translate(-3 -3)" fill="none" stroke="#cbad34" stroke-linecap="round" stroke-linejoin="round" stroke-width="1"/>
  </g>
</svg>
