<svg xmlns="http://www.w3.org/2000/svg" xmlns:xlink="http://www.w3.org/1999/xlink" width="54" height="54" viewBox="0 0 54 54">
  <defs>
    <filter id="gold" x="0" y="0" width="54" height="54" filterUnits="userSpaceOnUse">
      <feOffset dy="3" input="SourceAlpha"/>
      <feGaussianBlur stdDeviation="3" result="blur"/>
      <feFlood flood-color="#41341a" flood-opacity="0.161"/>
      <feComposite operator="in" in2="blur"/>
      <feComposite in="SourceGraphic"/>
    </filter>
  </defs>
  <g transform="matrix(1, 0, 0, 1, 0, 0)" filter="url(#gold)">
    <path id="gold-2" data-name="gold" d="M18,7.875a3.938,3.938,0,1,0-3.937-3.937A3.937,3.937,0,0,0,18,7.875ZM30.375,31.5H5.625A1.125,1.125,0,0,0,4.5,32.625v2.25A1.125,1.125,0,0,0,5.625,36h24.75A1.125,1.125,0,0,0,31.5,34.875v-2.25A1.125,1.125,0,0,0,30.375,31.5ZM35.5,12.949l-2-1.119a1.15,1.15,0,0,0-1.567.329,3.346,3.346,0,0,1-3.321,1.282,3.5,3.5,0,0,1-2.731-3.5A.942.942,0,0,0,24.933,9H22.207a.915.915,0,0,0-.9.7,3.375,3.375,0,0,1-6.605,0,.912.912,0,0,0-.9-.7H11.067a.942.942,0,0,0-.942.942,3.5,3.5,0,0,1-3.141,3.55,3.34,3.34,0,0,1-2.921-1.346,1.14,1.14,0,0,0-1.553-.319L.5,12.952a1.125,1.125,0,0,0-.382,1.439L7.329,29.25H28.671l7.211-14.862a1.125,1.125,0,0,0-.382-1.439Z" transform="translate(9 6)" fill="#f3c56d"/>
  </g>
</svg>
