<svg xmlns="http://www.w3.org/2000/svg" width="64.003" height="47.622" viewBox="0 0 64.003 47.622">
  <path id="grey-dollar" d="M62.118,4.637A28.086,28.086,0,0,0,50.477,2.25c-12.317,0-24.634,6.627-36.951,6.627A28.684,28.684,0,0,1,4.26,7.418a3.234,3.234,0,0,0-1.035-.172A3.282,3.282,0,0,0,0,10.627V44.352a3.4,3.4,0,0,0,1.884,3.132,28.071,28.071,0,0,0,11.641,2.389c12.317,0,24.635-6.628,36.952-6.628A28.684,28.684,0,0,1,59.743,44.7a3.234,3.234,0,0,0,1.035.172A3.282,3.282,0,0,0,64,41.493V7.77a3.4,3.4,0,0,0-1.885-3.133ZM4.8,12.9a32.876,32.876,0,0,0,6.272.949A6.522,6.522,0,0,1,4.8,19.331Zm0,30.3V38.119a6.591,6.591,0,0,1,6.371,6.527A22.935,22.935,0,0,1,4.8,43.2ZM32,36.265c-4.419,0-8-4.57-8-10.2s3.582-10.2,8-10.2,8,4.569,8,10.2S36.418,36.265,32,36.265Zm27.2,2.953a32.5,32.5,0,0,0-5.432-.9A6.548,6.548,0,0,1,59.2,33.083Zm0-25.1a6.647,6.647,0,0,1-5.581-6.543A22.842,22.842,0,0,1,59.2,8.923Z" transform="translate(0 -2.25)" fill="#fff"/>
</svg>
