<svg xmlns="http://www.w3.org/2000/svg" width="21.557" height="24.636" viewBox="0 0 21.557 24.636">
  <path id="grey-genre" d="M21.557,3.519v2.2c0,1.938-4.828,3.519-10.778,3.519S0,7.658,0,5.719v-2.2C0,1.581,4.828,0,10.778,0S21.557,1.581,21.557,3.519Zm0,4.949v4.949c0,1.938-4.828,3.519-10.778,3.519S0,15.356,0,13.418V8.469c2.316,1.595,6.554,2.337,10.778,2.337S19.241,10.064,21.557,8.469Zm0,7.7v4.949c0,1.938-4.828,3.519-10.778,3.519S0,23.055,0,21.117V16.168C2.316,17.762,6.554,18.5,10.778,18.5S19.241,17.762,21.557,16.168Z" fill="#9daac5"/>
</svg>
