<svg xmlns="http://www.w3.org/2000/svg" width="18.035" height="23.651" viewBox="0 0 18.035 23.651">
  <path id="grey-city" d="M5.179,10.969H6.9V22.006H9.472v-9.46h2.576v9.46h2.576v-9.46H17.2v9.46h2.576V10.969h1.717a.826.826,0,0,0,.859-.788A.767.767,0,0,0,22,9.543h0l-.013-.007-.022-.013-8.2-4.242V4.036c1.514.7,2.76-.5,4.723.218V1.509c-1.964-.72-3.21.477-4.723-.218V1.114a.43.43,0,0,0-.858,0V5.279L4.712,9.52l-.022.013-.012.008h0a.768.768,0,0,0-.357.638.825.825,0,0,0,.858.788Zm.858,11.826L4.32,24.371H22.355l-1.718-1.576Z" transform="translate(-4.32 -0.72)" fill="#9daac5"/>
</svg>
