<svg xmlns="http://www.w3.org/2000/svg" width="22.889" height="22.888" viewBox="0 0 22.889 22.888">
  <path id="grey-pencil" d="M22.259,3.316,19.572.628a2.147,2.147,0,0,0-3.036,0L14.008,3.156l5.723,5.723,2.528-2.528a2.147,2.147,0,0,0,0-3.036ZM11.226,2.4A1.788,1.788,0,0,0,8.7,2.4l-5.31,5.31a.715.715,0,0,0,0,1.011L4.4,9.731a.715.715,0,0,0,1.012,0L9.963,5.179,10.975,6.19,4.2,12.965A14.62,14.62,0,0,0,.007,21.686v.01A1.073,1.073,0,0,0,1.19,22.881a14.619,14.619,0,0,0,8.732-4.193l8.8-8.8-3.7-3.7L11.226,2.4Z" transform="translate(0.001 0)" fill="#9daac5"/>
</svg>
