<svg width="32" height="32" viewBox="0 0 32 32" fill="none" xmlns="http://www.w3.org/2000/svg">
<path d="M13.395 3.05299L14.956 1.49199C15.1122 1.33489 15.298 1.21022 15.5025 1.12515C15.7071 1.04007 15.9265 0.996277 16.148 0.996277C16.3696 0.996277 16.5889 1.04007 16.7935 1.12515C16.9981 1.21022 17.1838 1.33489 17.34 1.49199L31.008 15.153C31.1651 15.3092 31.2898 15.4949 31.3749 15.6995C31.4599 15.9041 31.5037 16.1234 31.5037 16.345C31.5037 16.5665 31.4599 16.7859 31.3749 16.9905C31.2898 17.195 31.1651 17.3808 31.008 17.537L17.339 31.21C17.1828 31.3671 16.9971 31.4918 16.7925 31.5768C16.5879 31.6619 16.3686 31.7057 16.147 31.7057C15.9255 31.7057 15.7061 31.6619 15.5015 31.5768C15.297 31.4918 15.1112 31.3671 14.955 31.21L13.395 29.653C13.2364 29.4939 13.1112 29.3048 13.0266 29.0967C12.9421 28.8886 12.8998 28.6657 12.9024 28.4411C12.9051 28.2165 12.9524 27.9947 13.0418 27.7886C13.1312 27.5825 13.2608 27.3964 13.423 27.241L21.9 19.166H1.68801C1.46615 19.1667 1.24635 19.1234 1.04126 19.0388C0.836162 18.9543 0.649816 18.8299 0.492939 18.6731C0.336062 18.5162 0.21175 18.3298 0.127154 18.1247C0.0425582 17.9196 -0.000652645 17.6998 7.45004e-06 17.478V15.228C-0.00052062 15.0062 0.0427877 14.7865 0.127443 14.5816C0.212098 14.3766 0.336431 14.1903 0.493295 14.0336C0.650158 13.8768 0.836459 13.7526 1.04149 13.668C1.24652 13.5835 1.46624 13.5403 1.68801 13.541H21.9L13.423 5.46899C13.2587 5.31443 13.1273 5.12831 13.0366 4.92177C12.9459 4.71523 12.8978 4.49251 12.8952 4.26695C12.8926 4.04139 12.9355 3.81761 13.0214 3.60903C13.1072 3.40044 13.2343 3.21132 13.395 3.05299Z" fill="#B259CA"/>
</svg>
