<svg width="98" height="75" viewBox="0 0 98 75" fill="none" xmlns="http://www.w3.org/2000/svg">
<path d="M88.328 2H30.581L3.33398 10.926L20.821 33.243C15.399 35.542 7.80698 44.036 20.821 59.616C33.834 75.197 51.728 73.412 59.048 70.572C63.521 67.19 75.64 54.991 88.328 33.243C101.016 11.495 93.615 3.3525 88.328 2Z" fill="url(#paint0_linear)"/>
<path fill-rule="evenodd" clip-rule="evenodd" d="M30.262 0H88.58L88.824 0.0624008C92.187 0.922701 95.959 3.8829 97.035 9.604C98.088 15.21 96.506 23.194 90.056 34.251C77.278 56.152 64.998 68.581 60.254 72.167L60.032 72.335L59.771 72.436C51.945 75.473 33.027 77.351 19.286 60.899C12.567 52.854 10.822 46.219 11.953 41.024C12.816 37.063 15.275 34.293 17.791 32.619L0 9.914L30.262 0ZM30.9 4L6.668 11.939L24.006 34.065L21.602 35.084C19.318 36.052 16.637 38.312 15.862 41.874C15.095 45.396 16.061 50.798 22.356 58.334C34.487 72.859 51.089 71.391 58.064 68.806C62.453 65.388 74.217 53.461 86.601 32.235C92.839 21.543 93.9 14.582 93.103 10.342C92.358 6.375 89.951 4.57 88.057 4H30.9Z" fill="url(#paint1_linear)"/>
<path d="M82.937 6.24097H36.6109L14.752 13.419L28.781 31.362C24.431 33.21 18.341 40.04 28.781 52.567C39.221 65.095 53.575 63.66 59.447 61.376C63.036 58.657 72.7579 48.848 82.937 31.362C93.116 13.875 87.1779 7.32897 82.937 6.24097Z" fill="url(#paint2_linear)"/>
<path fill-rule="evenodd" clip-rule="evenodd" d="M36.2909 4.24097H83.1889L83.4339 4.30397C86.2749 5.03297 89.4189 7.52897 90.3099 12.283C91.1799 16.924 89.8608 23.442 84.6648 32.368C74.3969 50.008 64.5139 60.047 60.6549 62.97L60.4329 63.139L60.1719 63.24C53.7919 65.721 38.4119 67.249 27.2439 53.848C21.8129 47.33 20.3379 41.875 21.2799 37.535C21.9579 34.416 23.8189 32.187 25.7839 30.775L11.4229 12.407L36.2909 4.24097ZM36.9309 8.24097L18.0819 14.43L31.9619 32.183L29.5629 33.202C27.8169 33.945 25.7779 35.675 25.1889 38.385C24.6089 41.054 25.3089 45.277 30.3169 51.287C39.8749 62.757 52.9359 61.638 58.4619 59.611C61.9679 56.854 71.3348 47.317 81.2078 30.356C86.1918 21.795 86.9929 16.297 86.3789 13.02C85.8158 10.019 84.0349 8.67697 82.6589 8.24097H36.9309Z" fill="url(#paint3_linear)"/>
<defs>
<linearGradient id="paint0_linear" x1="70.2138" y1="24.184" x2="9.20585" y2="46.043" gradientUnits="userSpaceOnUse">
<stop stop-color="#A300CF" stop-opacity="0"/>
<stop offset="1" stop-color="#176087" stop-opacity="0.08"/>
</linearGradient>
<linearGradient id="paint1_linear" x1="70.2138" y1="24.184" x2="9.20585" y2="46.043" gradientUnits="userSpaceOnUse">
<stop stop-color="#A300CF" stop-opacity="0"/>
<stop offset="1" stop-color="#176087" stop-opacity="0.08"/>
</linearGradient>
<linearGradient id="paint2_linear" x1="70.2138" y1="24.184" x2="9.20585" y2="46.043" gradientUnits="userSpaceOnUse">
<stop stop-color="#A300CF" stop-opacity="0"/>
<stop offset="1" stop-color="#176087" stop-opacity="0.08"/>
</linearGradient>
<linearGradient id="paint3_linear" x1="70.2138" y1="24.184" x2="9.20585" y2="46.043" gradientUnits="userSpaceOnUse">
<stop stop-color="#A300CF" stop-opacity="0"/>
<stop offset="1" stop-color="#176087" stop-opacity="0.08"/>
</linearGradient>
</defs>
</svg>
