<svg xmlns="http://www.w3.org/2000/svg" width="84" height="84" viewBox="0 0 84 84">
  <path id="thumbs-up" d="M17.063,36.75H3.938A3.937,3.937,0,0,0,0,40.688V80.063A3.937,3.937,0,0,0,3.938,84H17.063A3.937,3.937,0,0,0,21,80.063V40.688A3.937,3.937,0,0,0,17.063,36.75ZM10.5,77.438A3.938,3.938,0,1,1,14.438,73.5,3.937,3.937,0,0,1,10.5,77.438ZM63,13.363c0,6.959-4.261,10.862-5.46,15.512H74.229A9.8,9.8,0,0,1,84,38.407a11.879,11.879,0,0,1-3.189,8.071l-.018.018a13.7,13.7,0,0,1-1.527,13.038A12.974,12.974,0,0,1,76.578,71.8a8.71,8.71,0,0,1-1.009,7.322C72.221,83.932,63.921,84,56.9,84h-.467c-7.922,0-14.406-2.887-19.615-5.2-2.618-1.165-6.041-2.606-8.638-2.654a1.969,1.969,0,0,1-1.933-1.968V39.1a1.967,1.967,0,0,1,.584-1.4c6.5-6.422,9.294-13.221,14.621-18.557,2.429-2.433,3.312-6.109,4.166-9.664C46.35,6.447,47.876,0,51.188,0,55.125,0,63,1.313,63,13.363Z" fill="#176087"/>
</svg>
