<svg xmlns="http://www.w3.org/2000/svg" width="84.708" height="84.708" viewBox="0 0 84.708 84.708">
  <path id="thumbs-down" d="M0,9.265V48.972a3.971,3.971,0,0,0,3.971,3.971H17.206a3.971,3.971,0,0,0,3.971-3.971V9.265a3.971,3.971,0,0,0-3.971-3.971H3.971A3.971,3.971,0,0,0,0,9.265ZM6.618,42.354a3.971,3.971,0,1,1,3.971,3.971A3.971,3.971,0,0,1,6.618,42.354Zm45,42.354c-3.339,0-4.878-6.5-5.614-9.562-.861-3.585-1.752-7.291-4.2-9.745-5.372-5.381-8.19-12.237-14.744-18.714a1.982,1.982,0,0,1-.589-1.41V9.91a1.986,1.986,0,0,1,1.949-1.985c2.619-.048,6.071-1.5,8.711-2.677C42.385,2.912,48.924,0,56.912,0h.471C64.46,0,72.829.068,76.206,4.92A8.783,8.783,0,0,1,77.223,12.3a13.084,13.084,0,0,1,2.71,12.368,13.821,13.821,0,0,1,1.54,13.148l.018.018a11.979,11.979,0,0,1,3.216,8.139,9.885,9.885,0,0,1-9.853,9.612H58.025c1.209,4.689,5.506,8.625,5.506,15.642C63.531,83.384,55.59,84.708,51.619,84.708Z" fill="#bd4040"/>
</svg>
