<svg xmlns="http://www.w3.org/2000/svg" width="34.998" height="31.5" viewBox="0 0 34.998 31.5">
  <path id="waze" d="M35.309,14.18c1.021,6.037-2.175,11.807-7.957,14.634A3.635,3.635,0,1,1,20.328,30.3c-.453.013-4.514,0-5.367-.045a3.637,3.637,0,1,1-7.086-1.291,14.617,14.617,0,0,1-7-4.978,1.837,1.837,0,0,1,1.465-2.939c3.256,0,2.265-3.809,3.034-7.753C6.666,6.694,13.579,2.25,20.256,2.25c7.206,0,13.862,4.969,15.053,11.93ZM26.262,27.3a12.752,12.752,0,0,0,6.77-7.182c2.846-8.655-4.511-16.031-12.776-16.031-5.868,0-11.976,3.9-13.083,9.563-.67,3.439.352,9.236-4.834,9.236a13,13,0,0,0,6.59,4.5A3.636,3.636,0,0,1,14.543,28.4c1,.07,5.568.083,6.18.058A3.634,3.634,0,0,1,26.262,27.3ZM14.422,13.158a1.788,1.788,0,1,1,3.575,0,1.788,1.788,0,1,1-3.575,0Zm8.2,0a1.789,1.789,0,1,1,3.576,0A1.789,1.789,0,1,1,22.619,13.158ZM14,18.128a.919.919,0,0,1,1.8-.366l0,.02a4.375,4.375,0,0,0,4.508,3.028c2.509-.066,4.166-1.562,4.508-3.007a.921.921,0,0,1,1.791.422c-.368,1.56-2.194,4.359-6.431,4.423-2.992,0-5.687-1.958-6.18-4.518Z" transform="translate(-0.499 -2.25)" fill="#083046"/>
</svg>
