<svg xmlns="http://www.w3.org/2000/svg" width="46" height="46" viewBox="0 0 46 46">
  <path id="whatsapp" d="M25.667,2.25A22.5,22.5,0,0,0,3.085,24.658a22.176,22.176,0,0,0,3.24,11.571L2.25,48.25l12.5-3.972a22.62,22.62,0,0,0,33.5-19.62A22.5,22.5,0,0,0,25.667,2.25ZM36.9,33.168c-.531,1.317-2.934,2.519-3.994,2.574s-1.089.821-6.863-1.687-9.246-8.609-9.52-9-2.236-3.188-2.13-6a6.4,6.4,0,0,1,2.2-4.695A2.211,2.211,0,0,1,18.15,13.7c.455-.007.749-.014,1.086,0s.841-.07,1.278,1.092S22,18.809,22.131,19.1a1.046,1.046,0,0,1,.01,1,3.922,3.922,0,0,1-.612.933c-.3.323-.634.723-.9.97-.3.274-.613.572-.3,1.157a17.28,17.28,0,0,0,3.058,4.08,15.756,15.756,0,0,0,4.528,3.01c.566.308.9.274,1.255-.1s1.5-1.617,1.909-2.174.787-.449,1.308-.239,3.3,1.7,3.868,2.007.944.465,1.079.708A4.742,4.742,0,0,1,36.9,33.168Z" transform="translate(-2.25 -2.25)" fill="#30d24c"/>
</svg>
